<svg width="32" height="32" viewBox="0 0 32 32" xmlns="http://www.w3.org/2000/svg">
    <g fill-rule="nonzero" fill="none">
        <path d="M29.792 23.97c1.437-2.475 2.194-5.222 2.194-7.97 0-8.81-7.187-16-15.993-16C7.186 0 0 7.19 0 16c0 8.81 7.188 16 15.993 16 2.883 0 5.74-.824 8.288-2.386L32 31.994l-2.208-8.024zm-5.79 3.596c-2.436 1.582-4.934 2.559-8.01 2.559-7.784 0-14.118-6.336-14.118-14.125S8.208 1.875 15.993 1.875 30.112 8.211 30.112 16c0 2.96-.92 5.374-2.341 7.69l1.515 5.505-5.283-1.63z" fill="#0CAC9D"/>
        <path d="m16.075 5.69-.082-.002h-.088C10.221 5.688 5.597 10.314 5.597 16c0 5.686 4.624 10.312 10.308 10.312h.088c.028 0 .055 0 .082-.002 5.606-.09 10.138-4.68 10.138-10.31 0-5.63-4.532-10.22-10.138-10.31zm7.384 6.56H20.38c-.197-1.188-.49-2.284-.866-3.227a9.896 9.896 0 0 0-.367-.812 8.487 8.487 0 0 1 4.312 4.039zm.88 3.75c0 .644-.073 1.272-.21 1.875h-3.523a24.22 24.22 0 0 0 0-3.75h3.523c.137.603.21 1.23.21 1.875zm-8.313 8.436h-.052c-.554-.018-1.244-.86-1.761-2.155-.297-.742-.534-1.611-.706-2.543h4.972c-.172.932-.409 1.8-.706 2.543-.513 1.285-1.195 2.123-1.747 2.155zm-2.766-6.561a22.37 22.37 0 0 1 0-3.75h5.466a22.37 22.37 0 0 1 0 3.75H13.26zM7.471 16c0-.644.073-1.284.21-1.887h3.7a24.542 24.542 0 0 0 0 3.762h-3.7A8.432 8.432 0 0 1 7.472 16zm8.503-8.437.052.001c.552.032 1.234.87 1.747 2.155.297.742.534 1.599.706 2.531h-4.972c.172-.932.409-1.789.706-2.53.517-1.296 1.207-2.138 1.761-2.157zm-3.09.56a9.786 9.786 0 0 0-.412.9c-.377.943-.669 2.039-.866 3.227H8.352a8.484 8.484 0 0 1 4.533-4.128zM8.353 19.75h3.254c.197 1.188.49 2.284.866 3.227.13.322.267.622.413.9a8.485 8.485 0 0 1-4.533-4.127zm10.795 4.039c.129-.253.251-.524.367-.812.377-.943.669-2.051.866-3.24h3.079a8.51 8.51 0 0 1-4.312 4.052z" fill="#FF6121"/>
    </g>
</svg>
