<svg xmlns="http://www.w3.org/2000/svg" width="101.395" height="54.234" viewBox="0 0 101.395 54.234">
  <g id="Navbar-Logo" transform="translate(0 0)">
    <path id="Path_2" data-name="Path 2" d="M380,337.245h-9.1v9.1Z" transform="translate(-370.905 -337.245)" fill="#691950"/>
    <path id="Path_3" data-name="Path 3" d="M380,349.131h-9.1v9.1Z" transform="translate(-370.905 -340.031)" fill="#841f61"/>
    <path id="Path_4" data-name="Path 4" d="M380,361.018h-9.1v9.1Z" transform="translate(-370.905 -342.818)" fill="#a72176"/>
    <path id="Path_5" data-name="Path 5" d="M380,372.9h-9.1V382Z" transform="translate(-370.905 -345.604)" fill="#c01c7a"/>
    <path id="Path_6" data-name="Path 6" d="M391.563,373.644h-8.772v-36.4h8.772a18.2,18.2,0,1,1,0,36.4" transform="translate(-373.691 -337.245)" fill="#231441"/>
    <path id="Path_7" data-name="Path 7" d="M382.97,402.936a2.189,2.189,0,0,1-.914-.936.244.244,0,0,1-.027-.107.232.232,0,0,1,.076-.177.277.277,0,0,1,.2-.071.267.267,0,0,1,.256.168,1.648,1.648,0,0,0,.715.688,2.462,2.462,0,0,0,1.14.244,1.776,1.776,0,0,0,1.2-.381,1.361,1.361,0,0,0,.439-1.083,1.3,1.3,0,0,0-.43-1,2.318,2.318,0,0,0-1.274-.51,2.9,2.9,0,0,1-1.549-.643,1.576,1.576,0,0,1-.563-1.22,1.6,1.6,0,0,1,.263-.91,1.724,1.724,0,0,1,.736-.612,2.611,2.611,0,0,1,1.1-.217,2.344,2.344,0,0,1,1.19.31,2.136,2.136,0,0,1,.8.746.289.289,0,0,1,.035.142.22.22,0,0,1-.04.129.3.3,0,0,1-.11.093.259.259,0,0,1-.107.018.279.279,0,0,1-.248-.134,1.723,1.723,0,0,0-1.518-.772,1.783,1.783,0,0,0-1.149.333,1.122,1.122,0,0,0-.413.928,1.038,1.038,0,0,0,.408.833,2.664,2.664,0,0,0,1.261.48,3.01,3.01,0,0,1,1.632.688,1.758,1.758,0,0,1,.515,1.318,2.029,2.029,0,0,1-.27,1.064,1.764,1.764,0,0,1-.763.693,2.583,2.583,0,0,1-1.141.24,2.911,2.911,0,0,1-1.446-.342" transform="translate(-373.513 -351.059)" fill="#82bdcc"/>
    <path id="Path_8" data-name="Path 8" d="M391.986,402.913a.27.27,0,0,1,.076.2.259.259,0,0,1-.076.191.271.271,0,0,1-.2.074h-.2a1.7,1.7,0,0,1-.87-.221,1.565,1.565,0,0,1-.595-.608,1.784,1.784,0,0,1-.213-.874v-2.494h-.692a.228.228,0,0,1-.24-.24.228.228,0,0,1,.24-.239h.692v-1.446a.268.268,0,0,1,.076-.2.256.256,0,0,1,.19-.076.259.259,0,0,1,.276.276V398.7h1.172a.245.245,0,0,1,.173.413.238.238,0,0,1-.173.067h-1.172v2.494a1.146,1.146,0,0,0,.32.838,1.108,1.108,0,0,0,.825.324h.2a.268.268,0,0,1,.2.075" transform="translate(-375.141 -351.249)" fill="#82bdcc"/>
    <path id="Path_9" data-name="Path 9" d="M397.587,403.136a1.855,1.855,0,0,0,.7-.71,2.154,2.154,0,0,0,0-2.024,1.893,1.893,0,0,0-.7-.714,1.951,1.951,0,0,0-2.69.714,2.12,2.12,0,0,0,0,2.024,1.888,1.888,0,0,0,.7.71,2.053,2.053,0,0,0,1.987,0m-2.263.429a2.348,2.348,0,0,1-.892-.892,2.63,2.63,0,0,1,0-2.529,2.362,2.362,0,0,1,.892-.893,2.632,2.632,0,0,1,2.529,0,2.362,2.362,0,0,1,.892.893,2.63,2.63,0,0,1,0,2.529,2.348,2.348,0,0,1-.892.892,2.631,2.631,0,0,1-2.529,0" transform="translate(-376.345 -351.705)" fill="#82bdcc"/>
    <path id="Path_10" data-name="Path 10" d="M405.061,399.221a.245.245,0,0,1-.009.07.234.234,0,0,1-.084.138.267.267,0,0,1-.155.041,1.657,1.657,0,0,1-.209-.018,1.57,1.57,0,0,0-.217-.018,1.636,1.636,0,0,0-.79.187,1.38,1.38,0,0,0-.541.515,1.414,1.414,0,0,0-.194.736v2.7a.265.265,0,0,1-.071.191.255.255,0,0,1-.2.076.258.258,0,0,1-.267-.266v-4.322a.256.256,0,0,1,.075-.194.269.269,0,0,1,.191-.071.246.246,0,0,1,.266.266v.55a1.888,1.888,0,0,1,.656-.638,1.709,1.709,0,0,1,.87-.231q.675,0,.675.293" transform="translate(-378.271 -351.705)" fill="#82bdcc"/>
    <path id="Path_11" data-name="Path 11" d="M411.257,399.205a.394.394,0,0,1-.035.124l-2.983,6.461c-.053.107-.121.159-.2.159a.367.367,0,0,1-.124-.027c-.113-.047-.169-.115-.169-.2a.4.4,0,0,1,.037-.125l.887-1.916a.4.4,0,0,1-.035-.062l-1.944-4.26a.313.313,0,0,1-.035-.141.221.221,0,0,1,.151-.2.305.305,0,0,1,.142-.037.222.222,0,0,1,.2.152l1.8,3.94,1.811-3.931c.053-.107.121-.161.2-.161a.317.317,0,0,1,.124.027c.112.047.168.116.168.2" transform="translate(-379.285 -351.716)" fill="#82bdcc"/>
    <path id="Path_12" data-name="Path 12" d="M417.484,403.211a.258.258,0,0,1-.075-.191V398.7a.256.256,0,0,1,.075-.2.3.3,0,0,1,.386,0,.26.26,0,0,1,.071.2v4.322a.262.262,0,0,1-.071.191.283.283,0,0,1-.386,0m-.111-5.919a.413.413,0,0,1-.115-.3.374.374,0,0,1,.124-.3.436.436,0,0,1,.292-.106.417.417,0,0,1,.289.106.384.384,0,0,1,.119.3.409.409,0,0,1-.417.417.391.391,0,0,1-.293-.12" transform="translate(-381.771 -351.156)" fill="#82bdcc"/>
    <path id="Path_13" data-name="Path 13" d="M423.845,399.183a1.917,1.917,0,0,1,.8.776,2.445,2.445,0,0,1,.289,1.22v2.387a.257.257,0,0,1-.076.191.266.266,0,0,1-.456-.191V401.18a1.676,1.676,0,0,0-.475-1.287,1.736,1.736,0,0,0-1.237-.443,1.964,1.964,0,0,0-.857.182,1.479,1.479,0,0,0-.609.505,1.236,1.236,0,0,0-.221.713v2.716a.265.265,0,0,1-.071.191.252.252,0,0,1-.2.076.257.257,0,0,1-.266-.266v-4.322a.256.256,0,0,1,.074-.2.27.27,0,0,1,.191-.071.246.246,0,0,1,.266.266v.462a2.113,2.113,0,0,1,.736-.582,2.18,2.18,0,0,1,.951-.208,2.465,2.465,0,0,1,1.158.266" transform="translate(-382.524 -351.703)" fill="#82bdcc"/>
    <path id="Path_14" data-name="Path 14" d="M432.433,399.9a1.954,1.954,0,0,0-.564,1.216h3.453a1.853,1.853,0,0,0-.532-1.216,1.63,1.63,0,0,0-1.19-.461,1.609,1.609,0,0,0-1.167.461m2.325-.652a2.119,2.119,0,0,1,.795.848,2.623,2.623,0,0,1,.283,1.233.239.239,0,0,1-.071.182.264.264,0,0,1-.187.067H431.86a1.982,1.982,0,0,0,.275.936,1.757,1.757,0,0,0,.665.643,1.9,1.9,0,0,0,.932.231,2.142,2.142,0,0,0,.7-.12,1.477,1.477,0,0,0,.555-.315.3.3,0,0,1,.186-.071.254.254,0,0,1,.258.24.241.241,0,0,1-.08.169,2.261,2.261,0,0,1-.741.425,2.508,2.508,0,0,1-.874.169,2.452,2.452,0,0,1-1.247-.315,2.244,2.244,0,0,1-.856-.879,2.591,2.591,0,0,1-.311-1.274,2.776,2.776,0,0,1,.288-1.282,2.152,2.152,0,0,1,.808-.878,2.231,2.231,0,0,1,1.184-.315,2.207,2.207,0,0,1,1.158.306" transform="translate(-385.068 -351.708)" fill="#82bdcc"/>
    <path id="Path_15" data-name="Path 15" d="M442.271,399.232a.229.229,0,0,1-.018.1l-2,4.339a.3.3,0,0,1-.284.187.245.245,0,0,1-.147-.049.312.312,0,0,1-.1-.138l-2.023-4.331a.217.217,0,0,1-.018-.1.266.266,0,0,1,.257-.256.231.231,0,0,1,.221.15l1.82,3.94,1.793-3.949a.239.239,0,0,1,.23-.151.267.267,0,0,1,.116.026.24.24,0,0,1,.151.231" transform="translate(-386.56 -351.716)" fill="#82bdcc"/>
    <path id="Path_16" data-name="Path 16" d="M445.37,399.9a1.955,1.955,0,0,0-.564,1.216h3.453a1.853,1.853,0,0,0-.533-1.216,1.627,1.627,0,0,0-1.189-.461,1.609,1.609,0,0,0-1.167.461m2.324-.652a2.116,2.116,0,0,1,.8.848,2.623,2.623,0,0,1,.283,1.233.237.237,0,0,1-.071.182.262.262,0,0,1-.187.067H444.8a1.979,1.979,0,0,0,.275.936,1.756,1.756,0,0,0,.665.643,1.9,1.9,0,0,0,.932.231,2.144,2.144,0,0,0,.7-.12,1.479,1.479,0,0,0,.555-.315.3.3,0,0,1,.186-.071.255.255,0,0,1,.258.24.241.241,0,0,1-.08.169,2.261,2.261,0,0,1-.741.425,2.509,2.509,0,0,1-.875.169,2.449,2.449,0,0,1-1.246-.315,2.238,2.238,0,0,1-.856-.879,2.59,2.59,0,0,1-.311-1.274,2.777,2.777,0,0,1,.288-1.282,2.15,2.15,0,0,1,.808-.878,2.235,2.235,0,0,1,1.185-.315,2.2,2.2,0,0,1,1.158.306" transform="translate(-388.101 -351.708)" fill="#82bdcc"/>
    <path id="Path_17" data-name="Path 17" d="M454.4,399.221a.246.246,0,0,1-.008.07.235.235,0,0,1-.085.138.266.266,0,0,1-.155.041,1.648,1.648,0,0,1-.208-.018,1.577,1.577,0,0,0-.217-.018,1.634,1.634,0,0,0-.79.187,1.367,1.367,0,0,0-.541.515,1.407,1.407,0,0,0-.2.736v2.7a.268.268,0,0,1-.07.191.255.255,0,0,1-.2.076.26.26,0,0,1-.191-.076.256.256,0,0,1-.075-.191v-4.322a.253.253,0,0,1,.075-.194.269.269,0,0,1,.191-.071.245.245,0,0,1,.266.266v.55a1.9,1.9,0,0,1,.657-.638,1.707,1.707,0,0,1,.87-.231c.45,0,.674.1.674.293" transform="translate(-389.837 -351.705)" fill="#82bdcc"/>
    <path id="Path_18" data-name="Path 18" d="M460.593,399.205a.394.394,0,0,1-.035.124l-2.982,6.461c-.054.107-.122.159-.2.159a.367.367,0,0,1-.124-.027c-.112-.047-.168-.115-.168-.2a.407.407,0,0,1,.035-.125l.887-1.916a.4.4,0,0,1-.035-.062l-1.944-4.26a.314.314,0,0,1-.035-.141.22.22,0,0,1,.151-.2.306.306,0,0,1,.142-.037.223.223,0,0,1,.2.152l1.8,3.94,1.81-3.931c.054-.107.122-.161.2-.161a.308.308,0,0,1,.123.027c.113.047.169.116.169.2" transform="translate(-390.851 -351.716)" fill="#82bdcc"/>
    <path id="Path_19" data-name="Path 19" d="M466.043,403.141a.257.257,0,0,1-.075-.191v-6.4a.258.258,0,0,1,.266-.266H470.5a.264.264,0,0,1,.187.076.252.252,0,0,1,.08.191.273.273,0,0,1-.266.266h-4v2.663h2.937a.258.258,0,0,1,.266.266.275.275,0,0,1-.076.2.253.253,0,0,1-.191.08H466.5v2.928a.27.27,0,0,1-.457.191" transform="translate(-393.19 -351.086)" fill="#82bdcc"/>
    <path id="Path_20" data-name="Path 20" d="M476.537,399.221a.251.251,0,0,1-.008.07.235.235,0,0,1-.085.138.264.264,0,0,1-.155.041,1.626,1.626,0,0,1-.208-.018,1.6,1.6,0,0,0-.218-.018,1.636,1.636,0,0,0-.79.187,1.366,1.366,0,0,0-.541.515,1.414,1.414,0,0,0-.2.736v2.7a.269.269,0,0,1-.071.191.255.255,0,0,1-.2.076.259.259,0,0,1-.191-.076.256.256,0,0,1-.075-.191v-4.322a.253.253,0,0,1,.075-.194.269.269,0,0,1,.191-.071.246.246,0,0,1,.267.266v.55a1.889,1.889,0,0,1,.656-.638,1.708,1.708,0,0,1,.87-.231q.675,0,.674.293" transform="translate(-395.027 -351.705)" fill="#82bdcc"/>
    <path id="Path_21" data-name="Path 21" d="M481.317,403.136a1.848,1.848,0,0,0,.7-.71,2.148,2.148,0,0,0,0-2.024,1.88,1.88,0,0,0-.7-.714,1.95,1.95,0,0,0-2.689.714,2.12,2.12,0,0,0,0,2.024,1.893,1.893,0,0,0,.7.71,2.055,2.055,0,0,0,1.988,0m.266-3.884a2.357,2.357,0,0,1,.892.893,2.524,2.524,0,0,1,.324,1.269v2.156a.268.268,0,0,1-.071.191.253.253,0,0,1-.2.076.256.256,0,0,1-.191-.076.261.261,0,0,1-.075-.191v-.692a2.074,2.074,0,0,1-.8.741,2.392,2.392,0,0,1-1.141.27,2.508,2.508,0,0,1-1.269-.324,2.337,2.337,0,0,1-.892-.892,2.63,2.63,0,0,1,0-2.529,2.346,2.346,0,0,1,.892-.893,2.632,2.632,0,0,1,2.529,0" transform="translate(-395.973 -351.705)" fill="#82bdcc"/>
    <path id="Path_22" data-name="Path 22" d="M492.126,399.183a1.764,1.764,0,0,1,.648.741,2.433,2.433,0,0,1,.231,1.078v2.565a.265.265,0,0,1-.071.191.251.251,0,0,1-.194.076.255.255,0,0,1-.191-.076.259.259,0,0,1-.075-.191V401a1.684,1.684,0,0,0-.364-1.118,1.162,1.162,0,0,0-.932-.434,1.307,1.307,0,0,0-1,.408,1.459,1.459,0,0,0-.364,1.083v2.627a.265.265,0,0,1-.071.191.284.284,0,0,1-.386,0,.259.259,0,0,1-.076-.191V401a1.683,1.683,0,0,0-.364-1.118,1.162,1.162,0,0,0-.932-.434,1.337,1.337,0,0,0-1.394,1.4v2.716a.268.268,0,0,1-.07.191.268.268,0,0,1-.462-.191v-4.322a.253.253,0,0,1,.075-.2.263.263,0,0,1,.456.2v.346a1.732,1.732,0,0,1,.613-.5,1.753,1.753,0,0,1,.781-.178,1.723,1.723,0,0,1,.923.253,1.812,1.812,0,0,1,.647.7,1.781,1.781,0,0,1,.666-.7,1.843,1.843,0,0,1,.958-.253,1.724,1.724,0,0,1,.949.266" transform="translate(-397.9 -351.703)" fill="#82bdcc"/>
    <path id="Path_23" data-name="Path 23" d="M497.87,399.9a1.95,1.95,0,0,0-.563,1.216h3.452a1.853,1.853,0,0,0-.532-1.216,1.63,1.63,0,0,0-1.19-.461,1.609,1.609,0,0,0-1.167.461m2.325-.652a2.114,2.114,0,0,1,.795.848,2.614,2.614,0,0,1,.283,1.233.239.239,0,0,1-.07.182.264.264,0,0,1-.187.067H497.3a1.972,1.972,0,0,0,.276.936,1.746,1.746,0,0,0,.665.643,1.891,1.891,0,0,0,.932.231,2.147,2.147,0,0,0,.7-.12,1.479,1.479,0,0,0,.554-.315.3.3,0,0,1,.186-.071.254.254,0,0,1,.258.24.241.241,0,0,1-.08.169,2.26,2.26,0,0,1-.741.425,2.507,2.507,0,0,1-.874.169,2.452,2.452,0,0,1-1.247-.315,2.244,2.244,0,0,1-.856-.879,2.59,2.59,0,0,1-.311-1.274,2.777,2.777,0,0,1,.289-1.282,2.145,2.145,0,0,1,.808-.878,2.231,2.231,0,0,1,1.184-.315,2.207,2.207,0,0,1,1.158.306" transform="translate(-400.408 -351.708)" fill="#82bdcc"/>
    <rect id="Rectangle_23" data-name="Rectangle 23" width="7.148" height="25.871" transform="translate(74.173 10.46)" fill="#231441"/>
    <path id="Path_24" data-name="Path 24" d="M484.986,346v-4.425h7.029V346H497.8v5.719h-5.785V365a6.513,6.513,0,0,0,.685,3.157q.683,1.251,3.068,1.251a8.814,8.814,0,0,0,1.549-.148,6.187,6.187,0,0,0,1.489-.447l.239,5.6a11.929,11.929,0,0,1-2.264.566,16.076,16.076,0,0,1-2.5.208,11.423,11.423,0,0,1-4.647-.8,7.037,7.037,0,0,1-2.829-2.2,8.132,8.132,0,0,1-1.429-3.216,18.608,18.608,0,0,1-.387-3.9V346Z" transform="translate(-397.649 -338.259)" fill="#231441"/>
    <path id="Path_25" data-name="Path 25" d="M420.781,376.158v-5.45l14.107-15.584H420.781V348.86h24.328v5.449l-14.753,15.585h14.649v6.264Z" transform="translate(-382.597 -339.968)" fill="#231441"/>
    <path id="Path_26" data-name="Path 26" d="M467.79,348.719l7.148-7.148H467.79Z" transform="translate(-393.618 -338.259)" fill="#231441"/>
  </g>
</svg>
