<svg xmlns="http://www.w3.org/2000/svg" width="21.552" height="21.552" viewBox="0 0 21.552 21.552">
  <path id="Icon_material-help-outline" data-name="Icon material-help-outline" d="M12.7,20.241h2.155V18.086H12.7ZM13.776,3A10.776,10.776,0,1,0,24.552,13.776,10.78,10.78,0,0,0,13.776,3Zm0,19.4A8.621,8.621,0,1,1,22.4,13.776,8.632,8.632,0,0,1,13.776,22.4Zm0-15.086a4.309,4.309,0,0,0-4.31,4.31h2.155a2.155,2.155,0,1,1,4.31,0c0,2.155-3.233,1.886-3.233,5.388h2.155c0-2.425,3.233-2.694,3.233-5.388A4.309,4.309,0,0,0,13.776,7.31Z" transform="translate(-3 -3)" fill="#82bdcc"/>
</svg>
